<svg width="60" height="60" viewBox="0 0 60 60" fill="none" xmlns="http://www.w3.org/2000/svg">
<g clip-path="url(#clip0_477_76)">
<path d="M2.73047 33.6C2.73047 18.76 14.7605 6.72998 29.6005 6.72998C42.6505 6.72998 53.5305 16.04 55.9605 28.38" stroke="white" stroke-width="1.46" stroke-miterlimit="10" stroke-linecap="round"/>
<path d="M52.1309 27.7599L56.4609 33.5999L59.3509 26.9199L52.1309 27.7599Z" fill="white"/>
<path d="M29.5999 52.7799C40.1927 52.7799 48.7799 44.1927 48.7799 33.5999C48.7799 23.0071 40.1927 14.4199 29.5999 14.4199C19.0071 14.4199 10.4199 23.0071 10.4199 33.5999C10.4199 44.1927 19.0071 52.7799 29.5999 52.7799Z" stroke="white" stroke-width="1.46" stroke-miterlimit="10"/>
<path d="M29.9499 20.6401H29.5999C27.8437 20.6401 26.4199 22.0639 26.4199 23.8201V26.2501C26.4199 28.0064 27.8437 29.4301 29.5999 29.4301H29.9499C31.7062 29.4301 33.1299 28.0064 33.1299 26.2501V23.8201C33.1299 22.0639 31.7062 20.6401 29.9499 20.6401Z" fill="white"/>
</g>
<defs>
<clipPath id="clip0_477_76">
<rect width="57.35" height="47.51" fill="white" transform="translate(2 6)"/>
</clipPath>
</defs>
</svg>
