<svg width="60" height="60" viewBox="0 0 60 60" fill="none" xmlns="http://www.w3.org/2000/svg">
<g clip-path="url(#clip0_486_53)">
<path d="M11.1504 11.9402C11.1504 11.9402 22.9404 6.65015 31.1804 12.9002C38.3004 18.3002 46.4304 14.4202 50.2604 11.9602" stroke="white" stroke-width="1.7" stroke-miterlimit="10" stroke-linecap="round"/>
<path d="M48.7 17.9902L49.67 12.3602L44.04 11.3902L46.84 9.41016L52.48 10.3802L51.51 16.0102L48.7 17.9902Z" fill="white"/>
<path d="M11.1504 23.1101C11.1504 23.1101 22.9404 17.8201 31.1804 24.0701C38.3004 29.4701 46.4304 25.5901 50.2604 23.1301" stroke="white" stroke-width="1.7" stroke-miterlimit="10" stroke-linecap="round"/>
<path d="M48.7 29.1603L49.67 23.5203L44.04 22.5503L46.84 20.5703L52.48 21.5403L51.51 27.1803L48.7 29.1603Z" fill="white"/>
<path d="M31.1797 35.23C38.2897 40.63 46.4297 36.75 50.2597 34.29" stroke="white" stroke-width="1.7" stroke-miterlimit="10" stroke-linecap="round"/>
<path d="M48.7 40.3202L49.67 34.6802L44.04 33.7202L46.84 31.7402L52.48 32.7102L51.51 38.3402L48.7 40.3202Z" fill="white"/>
<path d="M31.1797 46.4C38.2897 51.8 46.4297 47.92 50.2597 45.46" stroke="white" stroke-width="1.7" stroke-miterlimit="10" stroke-linecap="round"/>
<path d="M48.7 51.4904L49.67 45.8504L44.04 44.8804L46.84 42.9004L52.48 43.8704L51.51 49.5104L48.7 51.4904Z" fill="white"/>
<path d="M21.4899 31.6602C23.8199 31.7702 25.9299 32.7002 27.5299 34.1602C26.6499 30.8402 23.6999 28.3202 20.0899 28.1602C15.6299 27.9602 11.8599 31.4002 11.6499 35.8602C11.6099 36.7002 11.6999 37.5102 11.8999 38.2802C13.2199 34.2702 17.0699 31.4702 21.4799 31.6702L21.4899 31.6602Z" fill="white"/>
<path d="M13.79 44.2801C11.47 43.9601 9.47 42.8401 8 41.2401C8.57 44.6301 11.27 47.4001 14.86 47.9001C19.28 48.5101 23.36 45.4301 23.97 41.0101C24.09 40.1801 24.07 39.3601 23.94 38.5801C22.26 42.4501 18.17 44.8901 13.79 44.2801Z" fill="white"/>
<path d="M24.0096 41.5099C23.8996 43.8499 22.9696 45.9499 21.5096 47.5499C24.8296 46.6699 27.3496 43.7199 27.5096 40.11C27.7096 35.65 24.2696 31.8699 19.8096 31.6699C18.9696 31.6299 18.1596 31.7199 17.3896 31.9199C21.3996 33.2399 24.1996 37.0899 23.9996 41.4999L24.0096 41.5099Z" fill="white"/>
<path d="M11.6999 33.7299C12.0199 31.4099 13.1399 29.4099 14.7399 27.9399C11.3499 28.5099 8.57994 31.2099 8.07994 34.7999C7.46994 39.2199 10.5499 43.2999 14.9699 43.9099C15.7999 44.0299 16.6199 44.0099 17.3999 43.8799C13.5299 42.1999 11.0899 38.1099 11.6999 33.7299Z" fill="white"/>
<path d="M23.4898 38.2703C23.4898 41.4403 20.9198 44.0103 17.7498 44.0103C14.5798 44.0103 12.0098 41.4403 12.0098 38.2703C12.0098 35.1003 14.5798 32.5303 17.7498 32.5303C20.9198 32.5303 23.4898 35.1003 23.4898 38.2703Z" stroke="white" stroke-width="2.2" stroke-miterlimit="10" stroke-linecap="round"/>
</g>
<defs>
<clipPath id="clip0_486_53">
<rect width="44.48" height="42.49" fill="white" transform="translate(8 9)"/>
</clipPath>
</defs>
</svg>
