<svg width="60" height="60" viewBox="0 0 60 60" fill="none" xmlns="http://www.w3.org/2000/svg">
<g clip-path="url(#clip0_477_82)">
<path d="M48.6993 40.12V23.02C48.6993 20.52 46.6593 18.48 44.1593 18.48C41.6593 18.48 39.6193 20.52 39.6193 23.02V40.12C37.3593 41.64 36.0293 44.13 36.0293 46.87C36.0293 51.35 39.6793 55 44.1593 55C48.6393 55 52.2893 51.35 52.2893 46.87C52.2893 44.13 50.9493 41.64 48.6993 40.12ZM44.1593 53.65C40.4193 53.65 37.3693 50.61 37.3693 46.86C37.3693 44.47 38.5893 42.3 40.6393 41.05L40.9593 40.86V23.01C40.9593 21.25 42.3893 19.82 44.1593 19.82C45.9293 19.82 47.3593 21.25 47.3593 23.01V40.86L47.6793 41.05C49.7293 42.29 50.9493 44.46 50.9493 46.86C50.9493 50.6 47.9093 53.65 44.1593 53.65Z" fill="white"/>
<path d="M34.4495 33.05L38.1195 36.72C38.1195 36.72 38.2195 36.8 38.2695 36.83V35.07L35.3495 32.15L38.2695 32.5V31.21L33.8895 30.69L28.2695 25.07C28.3695 24.9 28.4495 24.72 28.5095 24.52H35.8295V23.24H28.6395C28.5995 22.82 28.4695 22.43 28.2695 22.08L33.8895 16.47L41.4595 15.57C41.8095 15.53 42.0595 15.21 42.0195 14.86C41.9795 14.51 41.6595 14.26 41.3095 14.3L35.3495 15L39.0195 11.33C39.2695 11.08 39.2695 10.67 39.0195 10.43C38.7695 10.18 38.3695 10.18 38.1195 10.43L34.4495 14.1L35.1495 8.14C35.1895 7.79 34.9395 7.47 34.5895 7.43C34.2395 7.39 33.9195 7.64 33.8795 7.99L32.9795 15.56L27.4295 21.11C27.1595 20.9 26.8495 20.74 26.5095 20.63V12.88L31.2295 6.9C31.4495 6.62 31.3995 6.22 31.1195 6C30.8395 5.78 30.4395 5.83 30.2195 6.11L26.4995 10.82V5.64C26.4995 5.29 26.2195 5 25.8595 5C25.4995 5 25.2195 5.29 25.2195 5.64V10.82L21.5095 6.11C21.2895 5.83 20.8895 5.79 20.6095 6C20.3295 6.22 20.2795 6.62 20.4995 6.9L25.2195 12.88V20.5C24.7995 20.54 24.4095 20.67 24.0595 20.87L18.1395 14.95L17.2495 7.38C17.2095 7.03 16.8895 6.78 16.5395 6.82C16.1895 6.86 15.9395 7.18 15.9795 7.53L16.6895 13.49L13.6395 10.44C13.3895 10.19 12.9795 10.19 12.7395 10.44C12.4895 10.69 12.4895 11.09 12.7395 11.34L15.7895 14.39L9.82947 13.69C9.47947 13.65 9.15947 13.9 9.11947 14.25C9.07947 14.6 9.32947 14.92 9.67947 14.96L17.2495 15.86L23.1095 21.72C22.7795 22.15 22.5595 22.68 22.4995 23.25H14.0195L8.02947 18.53C7.74947 18.31 7.34947 18.36 7.12947 18.64C6.90947 18.92 6.95947 19.32 7.23947 19.54L11.9495 23.25H7.63947C7.28947 23.25 6.99947 23.53 6.99947 23.88C6.99947 24.23 7.28947 24.52 7.63947 24.52H11.9595L7.23947 28.24C6.95947 28.46 6.91947 28.86 7.12947 29.14C7.34947 29.42 7.74947 29.46 8.02947 29.25L14.0195 24.53H22.6395C22.7495 24.87 22.9095 25.18 23.1195 25.45L17.2595 31.31L9.68947 32.2C9.33947 32.24 9.08947 32.56 9.12947 32.91C9.16947 33.26 9.48947 33.51 9.83947 33.47L15.7995 32.76L12.7495 35.81C12.4995 36.06 12.4995 36.47 12.7495 36.71C12.9995 36.96 13.3995 36.96 13.6495 36.71L16.6995 33.66L15.9895 39.62C15.9495 39.97 16.1995 40.29 16.5495 40.33C16.8995 40.37 17.2195 40.12 17.2595 39.77L18.1495 32.2L24.0695 26.28C24.4195 26.47 24.8095 26.6 25.2295 26.65V35.14L20.5095 41.13C20.2895 41.41 20.3395 41.81 20.6195 42.03C20.8995 42.25 21.2995 42.2 21.5195 41.92L25.2295 37.21V41.53C25.2295 41.88 25.5195 42.17 25.8695 42.17C26.2195 42.17 26.5095 41.88 26.5095 41.53V37.21L30.2295 41.92C30.4495 42.2 30.8495 42.24 31.1295 42.03C31.4095 41.81 31.4495 41.41 31.2395 41.13L26.5195 35.14V26.52C26.8595 26.41 27.1695 26.25 27.4395 26.04L32.9895 31.59L33.8895 39.16C33.9295 39.51 34.2495 39.76 34.5995 39.72C34.9495 39.68 35.1995 39.36 35.1595 39.01L34.4595 33.05H34.4495Z" fill="white"/>
<path d="M44.3291 50.0001C45.9639 50.0001 47.2891 48.6748 47.2891 47.0401C47.2891 45.4053 45.9639 44.0801 44.3291 44.0801C42.6944 44.0801 41.3691 45.4053 41.3691 47.0401C41.3691 48.6748 42.6944 50.0001 44.3291 50.0001Z" fill="white"/>
</g>
<defs>
<clipPath id="clip0_477_82">
<rect width="45.29" height="50" fill="white" transform="translate(7 5)"/>
</clipPath>
</defs>
</svg>
