<svg width="60" height="60" viewBox="0 0 60 60" fill="none" xmlns="http://www.w3.org/2000/svg">
<g clip-path="url(#clip0_477_81)">
<path d="M16.4405 31.8501H2.73047V37.3201H16.4405V31.8501Z" stroke="white" stroke-width="1.46" stroke-miterlimit="10"/>
<path d="M14.7505 13.5C13.4605 11.74 11.5805 10.73 9.58047 10.73C7.58047 10.73 5.71047 11.74 4.42047 13.5C3.33047 14.99 2.73047 16.91 2.73047 18.92V29.13H16.4405V18.92C16.4405 16.91 15.8405 14.99 14.7505 13.5Z" stroke="white" stroke-width="1.46" stroke-miterlimit="10"/>
<path d="M47.6509 13.5C46.3609 11.74 44.4809 10.73 42.4909 10.73C40.5009 10.73 38.6109 11.74 37.3209 13.5C36.2309 14.99 35.6309 16.91 35.6309 18.92V29.13H49.3409V18.92C49.3409 16.91 48.7409 14.99 47.6509 13.5Z" stroke="white" stroke-width="1.46" stroke-miterlimit="10"/>
<path d="M31.1999 13.5C29.9099 11.74 28.0299 10.73 26.0299 10.73C24.0299 10.73 22.1499 11.74 20.8599 13.5C19.7699 14.99 19.1699 16.91 19.1699 18.92V29.13H32.8799V18.92C32.8799 16.91 32.2799 14.99 31.1899 13.5H31.1999Z" stroke="white" stroke-width="1.46" stroke-miterlimit="10"/>
<path d="M32.8897 31.8501H19.1797V37.3201H32.8897V31.8501Z" stroke="white" stroke-width="1.46" stroke-miterlimit="10"/>
<path d="M49.9898 27.12C45.3698 25.45 40.2698 26.91 37.2198 30.6V30.54C35.5298 32.56 34.5098 35.16 34.5098 38.01C34.5098 40.37 35.2198 42.57 36.4298 44.41V44.36C38.7698 47.91 42.9398 49.96 47.3198 49.49C52.6698 48.91 56.9098 44.71 57.5498 39.37C58.1898 34.03 55.0498 28.95 49.9898 27.13V27.12ZM54.3198 39.97C54.2398 40.26 54.0098 40.48 53.7198 40.55L51.5198 41.14L52.1098 43.34C52.1698 43.55 52.1398 43.78 52.0298 43.97C51.9198 44.16 51.7398 44.3 51.5298 44.35C51.4598 44.37 51.3898 44.38 51.3098 44.38C50.9398 44.38 50.6098 44.13 50.5098 43.77L49.7998 41.1L46.8998 39.42V42.77L48.8498 44.72C49.0698 44.93 49.1498 45.23 49.0798 45.52C48.9998 45.81 48.7798 46.03 48.4898 46.11C48.1998 46.19 47.8898 46.1 47.6898 45.89L46.0798 44.28L44.4698 45.89C44.1498 46.2 43.6298 46.2 43.3098 45.88C42.9898 45.56 42.9898 45.05 43.3098 44.72L45.2598 42.77V39.42L42.3598 41.09L41.6498 43.76C41.5498 44.12 41.2298 44.37 40.8498 44.37C40.7798 44.37 40.7098 44.37 40.6398 44.34C40.1998 44.22 39.9398 43.77 40.0598 43.33L40.6498 41.13L38.4498 40.54C38.1598 40.47 37.9298 40.25 37.8498 39.96C37.7698 39.67 37.8498 39.36 38.0698 39.15C38.2798 38.94 38.5998 38.86 38.8798 38.95L41.5498 39.66L44.4498 37.99L41.5498 36.32L38.8798 37.03C38.8098 37.05 38.7398 37.06 38.6598 37.06C38.2498 37.06 37.8998 36.75 37.8398 36.34C37.7898 35.93 38.0498 35.54 38.4498 35.43L40.6498 34.84L40.0598 32.64C39.9398 32.2 40.2098 31.75 40.6498 31.63C41.0898 31.51 41.5398 31.77 41.6598 32.21L42.3698 34.88L45.2698 36.55V33.2L43.3198 31.25C43.0098 30.93 43.0098 30.41 43.3198 30.09C43.6298 29.77 44.1498 29.77 44.4798 30.08L46.0898 31.69L47.6998 30.08C48.0198 29.77 48.5398 29.77 48.8598 30.09C49.1798 30.41 49.1798 30.92 48.8598 31.25L46.9098 33.2V36.55L49.8098 34.88L50.5198 32.21C50.6398 31.77 51.0898 31.51 51.5298 31.63C51.9698 31.75 52.2298 32.2 52.1198 32.64L51.5298 34.84L53.7298 35.43C54.1298 35.54 54.3898 35.93 54.3398 36.34C54.2798 36.75 53.9298 37.06 53.5198 37.06C53.4498 37.06 53.3798 37.06 53.2998 37.03L50.6298 36.32L47.7298 37.99L50.6298 39.67L53.2998 38.96C53.5898 38.87 53.8998 38.96 54.1098 39.16C54.3198 39.37 54.4098 39.68 54.3298 39.97H54.3198Z" fill="white"/>
</g>
<defs>
<clipPath id="clip0_477_81">
<rect width="55.64" height="39.55" fill="white" transform="translate(2 10)"/>
</clipPath>
</defs>
</svg>
