<svg width="60" height="60" viewBox="0 0 60 60" fill="none" xmlns="http://www.w3.org/2000/svg">
<g clip-path="url(#clip0_477_83)">
<path d="M30.2895 41.52C38.3087 41.52 44.8095 35.0192 44.8095 27C44.8095 18.9808 38.3087 12.48 30.2895 12.48C22.2704 12.48 15.7695 18.9808 15.7695 27C15.7695 35.0192 22.2704 41.52 30.2895 41.52Z" stroke="white" stroke-width="1.46" stroke-miterlimit="10"/>
<path d="M36.4002 40.0801V48.1201C36.4002 49.0701 35.6302 49.8501 34.6702 49.8501H25.7202C24.7602 49.8501 23.9902 49.0801 23.9902 48.1201V40.0801" stroke="white" stroke-width="1.46" stroke-miterlimit="10"/>
<path d="M31.9591 54.7899H28.6491C27.8991 54.7899 27.2891 54.1799 27.2891 53.4299V49.8999H33.3091V53.4299C33.3091 54.1799 32.6991 54.7899 31.9491 54.7899H31.9591Z" stroke="white" stroke-width="1.46" stroke-miterlimit="10"/>
<path d="M23.9902 45.6499H36.4002" stroke="white" stroke-width="1.46" stroke-miterlimit="10"/>
<path d="M30.2891 40.9502V36.9502" stroke="white" stroke-width="1.46" stroke-miterlimit="10"/>
<path d="M30.2891 38.1202L33.4591 34.9502" stroke="white" stroke-width="1.46" stroke-miterlimit="10"/>
<path d="M30.2191 37.97L27.0391 34.79" stroke="white" stroke-width="1.46" stroke-miterlimit="10"/>
<path d="M30.1895 4V9.42" stroke="white" stroke-width="1.46" stroke-miterlimit="10"/>
<path d="M14.4609 10.75L18.2109 14.59" stroke="white" stroke-width="1.46" stroke-miterlimit="10"/>
<path d="M8 26.8999H13.3" stroke="white" stroke-width="1.46" stroke-miterlimit="10"/>
<path d="M14.5996 43.0002L18.3496 39.1602" stroke="white" stroke-width="1.46" stroke-miterlimit="10"/>
<path d="M46.1309 42.8498L42.3809 39.0098" stroke="white" stroke-width="1.46" stroke-miterlimit="10"/>
<path d="M52.5893 26.7002H47.2793" stroke="white" stroke-width="1.46" stroke-miterlimit="10"/>
<path d="M45.9902 10.6001L42.2402 14.4401" stroke="white" stroke-width="1.46" stroke-miterlimit="10"/>
</g>
<defs>
<clipPath id="clip0_477_83">
<rect width="44.59" height="51.52" fill="white" transform="translate(8 4)"/>
</clipPath>
</defs>
</svg>
