<svg width="60" height="60" viewBox="0 0 60 60" fill="none" xmlns="http://www.w3.org/2000/svg">
<g clip-path="url(#clip0_477_75)">
<path d="M11.9805 12.8303C11.9805 12.8303 23.1205 7.83027 30.8905 13.7403C37.6105 18.8403 45.2905 15.1703 48.9105 12.8603" stroke="white" stroke-width="1.7" stroke-miterlimit="10" stroke-linecap="round"/>
<path d="M47.4393 18.5402L48.3493 13.2202L43.0293 12.3002L45.6793 10.4302L50.9993 11.3502L50.0793 16.6702L47.4393 18.5402Z" fill="white"/>
<path d="M11.9805 23.3703C11.9805 23.3703 23.1205 18.3703 30.8905 24.2803C37.6105 29.3803 45.2905 25.7103 48.9105 23.4003" stroke="white" stroke-width="1.7" stroke-miterlimit="10" stroke-linecap="round"/>
<path d="M47.4393 29.0802L48.3493 23.7602L43.0293 22.8402L45.6793 20.9702L50.9993 21.8902L50.0793 27.2102L47.4393 29.0802Z" fill="white"/>
<path d="M30.8887 34.8199C37.6087 39.9199 45.2887 36.2499 48.9087 33.9399" stroke="white" stroke-width="1.7" stroke-miterlimit="10" stroke-linecap="round"/>
<path d="M47.4393 39.62L48.3493 34.3L43.0293 33.39L45.6793 31.52L50.9993 32.43L50.0793 37.75L47.4393 39.62Z" fill="white"/>
<path d="M30.8887 45.36C37.6087 50.46 45.2887 46.79 48.9087 44.48" stroke="white" stroke-width="1.7" stroke-miterlimit="10" stroke-linecap="round"/>
<path d="M47.4393 50.1701L48.3493 44.8501L43.0293 43.9301L45.6793 42.0601L50.9993 42.9801L50.0793 48.3001L47.4393 50.1701Z" fill="white"/>
<path d="M21.729 31.44C23.929 31.54 25.919 32.42 27.439 33.8C26.609 30.66 23.829 28.29 20.409 28.13C16.199 27.94 12.629 31.19 12.439 35.4C12.399 36.19 12.489 36.96 12.679 37.68C13.919 33.9 17.559 31.24 21.729 31.43V31.44Z" fill="white"/>
<path d="M14.46 43.36C12.27 43.06 10.38 42 9 40.49C9.54 43.69 12.09 46.31 15.48 46.78C19.65 47.36 23.51 44.44 24.08 40.27C24.19 39.49 24.17 38.72 24.05 37.98C22.46 41.63 18.6 43.94 14.46 43.37V43.36Z" fill="white"/>
<path d="M24.1189 40.75C24.0189 42.95 23.1389 44.94 21.7589 46.46C24.8989 45.63 27.2689 42.85 27.4289 39.43C27.6189 35.22 24.3689 31.65 20.1589 31.46C19.3689 31.42 18.5989 31.51 17.8789 31.7C21.6589 32.94 24.3189 36.58 24.1289 40.75H24.1189Z" fill="white"/>
<path d="M12.4895 33.3999C12.7895 31.2099 13.8495 29.3199 15.3595 27.9399C12.1595 28.4799 9.53951 31.0299 9.06951 34.4199C8.48951 38.5899 11.4095 42.4499 15.5795 43.0199C16.3595 43.1299 17.1295 43.1099 17.8695 42.9899C14.2195 41.3999 11.9095 37.5399 12.4795 33.3999H12.4895Z" fill="white"/>
<path d="M23.6291 37.69C23.6291 40.68 21.1991 43.11 18.2091 43.11C15.2191 43.11 12.7891 40.68 12.7891 37.69C12.7891 34.7 15.2191 32.27 18.2091 32.27C21.1991 32.27 23.6291 34.7 23.6291 37.69Z" stroke="white" stroke-width="2.2" stroke-miterlimit="10" stroke-linecap="round"/>
</g>
<defs>
<clipPath id="clip0_477_75">
<rect width="42" height="40.17" fill="white" transform="translate(9 10)"/>
</clipPath>
</defs>
</svg>
