<svg width="60" height="60" viewBox="0 0 60 60" fill="none" xmlns="http://www.w3.org/2000/svg">
<g clip-path="url(#clip0_477_84)">
<path d="M52.9907 33.7202C53.0107 33.5202 52.9607 33.3102 52.8407 33.1202L48.2907 26.6402C48.0107 26.2402 47.4507 26.1402 47.0507 26.4202C46.6507 26.7002 46.5507 27.2502 46.8307 27.6602L50.5207 32.9102H37.3507C36.8907 32.9102 36.5107 33.2602 36.4707 33.7202C36.4107 34.4502 35.7807 35.0302 35.0407 35.0302H24.9807C24.2407 35.0302 23.6107 34.4502 23.5507 33.7202C23.5107 33.2602 23.1307 32.9102 22.6707 32.9102H9.48073L13.1707 27.6602C13.4507 27.2602 13.3607 26.7102 12.9507 26.4202C12.5507 26.1402 12.0007 26.2402 11.7107 26.6402L7.16073 33.1302C7.03073 33.3102 6.99073 33.5202 7.01073 33.7302C7.01073 33.7602 7.01073 33.7802 7.01073 33.8102V49.7702C7.01073 50.2602 7.41073 50.6602 7.90073 50.6602H52.1207C52.6107 50.6602 53.0107 50.2602 53.0107 49.7702V33.8102C53.0107 33.8102 53.0107 33.7602 53.0107 33.7302L52.9907 33.7202ZM51.2207 48.8702H8.78073V34.6902H21.9507C22.4007 35.9402 23.5807 36.8102 24.9807 36.8102H35.0407C36.4307 36.8102 37.6207 35.9402 38.0607 34.6902H51.2307V48.8702H51.2207Z" fill="white"/>
<path d="M30.1605 11.66C30.3305 11.66 30.4805 11.73 30.5905 11.86C31.3805 12.82 32.9005 14.78 34.2705 17.04C36.0305 19.95 36.9305 22.36 36.9305 24.2C36.9305 27.93 33.9005 30.96 30.1605 30.96C26.4205 30.96 23.3905 27.93 23.3905 24.2C23.3905 22.36 24.2805 19.96 26.0505 17.04C27.4205 14.78 28.9405 12.82 29.7305 11.86C29.8405 11.73 29.9905 11.66 30.1605 11.66ZM30.1605 10C29.4905 10 28.8605 10.3 28.4405 10.82C27.6305 11.82 26.0505 13.84 24.6305 16.19C22.6805 19.41 21.7305 22.03 21.7305 24.21C21.7305 28.86 25.5105 32.63 30.1605 32.63C34.8105 32.63 38.5905 28.85 38.5905 24.21C38.5905 22.04 37.6405 19.41 35.6905 16.19C34.2705 13.85 32.6905 11.82 31.8805 10.82C31.4605 10.3 30.8305 10 30.1605 10Z" fill="white"/>
<path d="M31.091 28.4701C30.691 28.5701 30.291 28.6201 29.871 28.6201C27.341 28.6201 25.291 26.7101 25.291 24.3601C25.291 23.7901 25.441 23.1301 25.731 22.3901C25.781 22.2701 25.921 22.1901 26.061 22.2301C26.201 22.2601 26.291 22.3801 26.281 22.5101C26.261 22.6701 26.251 22.8201 26.251 22.9701C26.251 25.5201 28.311 27.6601 31.041 27.9501C31.181 27.9601 31.281 28.0701 31.291 28.1901C31.301 28.3201 31.211 28.4301 31.081 28.4701H31.091Z" fill="white"/>
</g>
<defs>
<clipPath id="clip0_477_84">
<rect width="46" height="40.65" fill="white" transform="translate(7 10)"/>
</clipPath>
</defs>
</svg>
